<svg width="500" height="500" viewBox="0 0 500 500" fill="none" xmlns="http://www.w3.org/2000/svg">
<circle cx="250" cy="250" r="249.5" fill="#595858" stroke="#383838"/>
<circle cx="250" cy="250" r="200" fill="#8A8A8A"/>
<path d="M258 84C161.35 84 83 162.35 83 259" stroke="white" stroke-width="5"/>
<path d="M241 417C337.65 417 416 338.65 416 242" stroke="white" stroke-width="5"/>
<path d="M295.844 307.3L297.634 262.371H294.233C288.982 278.242 284.328 289.042 280.271 294.77C276.214 300.617 270.366 303.541 262.729 303.541H260.581V185.759H275.796V182H210.461V185.759H225.676V303.541H223.349C215.712 303.541 209.805 300.498 205.628 294.412C201.451 288.445 196.857 277.765 191.845 262.371H188.444L190.234 307.3H295.844Z" fill="white"/>
</svg>
