<svg width="100" height="100" viewBox="0 0 100 100" fill="none" xmlns="http://www.w3.org/2000/svg">
<rect width="100" height="100" fill="#DCAE96"/>
<path d="M53.43 39.644C51.4647 39.644 50.0577 40.716 49.209 42.86C48.3603 45.004 47.936 48.555 47.936 53.513V56.997C47.936 61.419 48.4273 64.5903 49.41 66.511C50.3927 68.4317 52.2017 69.392 54.837 69.392C57.4723 69.392 59.5717 68.4987 61.135 66.712C62.6983 64.9253 63.7033 62.893 64.15 60.615L65.356 60.749C64.5073 64.5903 62.944 67.3597 60.666 69.057C58.3433 70.799 55.1497 71.67 51.085 71.67C45.9037 71.67 41.9283 70.2853 39.159 67.516C36.3897 64.702 35.005 60.615 35.005 55.255C35.005 49.8503 36.5683 45.6963 39.695 42.793C42.8663 39.8897 47.266 38.438 52.894 38.438C56.8693 38.438 59.9067 39.2197 62.006 40.783C64.1053 42.3017 65.155 44.2223 65.155 46.545C65.155 48.8677 64.6413 50.565 63.614 51.637C62.6313 52.709 61.2467 53.245 59.46 53.245C57.718 53.245 56.311 52.776 55.239 51.838C54.167 50.9 53.631 49.5153 53.631 47.684C53.631 46.88 53.7427 46.076 53.966 45.272H56.177C56.4897 44.3787 56.646 43.5747 56.646 42.86C56.646 40.716 55.574 39.644 53.43 39.644Z" fill="white"/>
</svg>
